<svg width="24" height="25" viewBox="0 0 24 25" fill="none" xmlns="http://www.w3.org/2000/svg">
<path d="M18.47 17.8134L18.86 20.9734C18.96 21.8034 18.07 22.3834 17.36 21.9534L13.17 19.4634C12.71 19.4634 12.26 19.4334 11.82 19.3734C12.56 18.5034 13 17.4034 13 16.2134C13 13.3734 10.54 11.0734 7.49997 11.0734C6.33997 11.0734 5.26997 11.4034 4.37997 11.9834C4.34997 11.7334 4.33997 11.4834 4.33997 11.2234C4.33997 6.67339 8.28997 2.9834 13.17 2.9834C18.05 2.9834 22 6.67339 22 11.2234C22 13.9234 20.61 16.3134 18.47 17.8134Z" stroke="#545555" stroke-width="1.5" stroke-linecap="round" stroke-linejoin="round"/>
<path d="M13 16.2134C13 17.4034 12.56 18.5035 11.82 19.3735C10.83 20.5735 9.26 21.3434 7.5 21.3434L4.89 22.8934C4.45 23.1634 3.89 22.7934 3.95 22.2834L4.2 20.3135C2.86 19.3835 2 17.8934 2 16.2134C2 14.4534 2.94 12.9035 4.38 11.9835C5.27 11.4035 6.34 11.0735 7.5 11.0735C10.54 11.0735 13 13.3734 13 16.2134Z" stroke="#545555" stroke-width="1.5" stroke-linecap="round" stroke-linejoin="round"/>
</svg>
