<svg width="22" height="22" viewBox="0 0 22 22" fill="none" xmlns="http://www.w3.org/2000/svg">
<path d="M18 10.0013H6.14L9.77 5.64125C9.93974 5.43704 10.0214 5.17375 9.99702 4.90933C9.97264 4.6449 9.84422 4.40099 9.64 4.23125C9.43578 4.06151 9.1725 3.97985 8.90808 4.00423C8.64365 4.02861 8.39974 4.15704 8.23 4.36125L3.23 10.3613C3.19636 10.409 3.16628 10.4591 3.14 10.5113C3.14 10.5613 3.14 10.5913 3.07 10.6413C3.02467 10.7559 3.00094 10.878 3 11.0013C3.00094 11.1245 3.02467 11.2466 3.07 11.3613C3.07 11.4113 3.07 11.4413 3.14 11.4913C3.16628 11.5434 3.19636 11.5935 3.23 11.6413L8.23 17.6413C8.32402 17.7541 8.44176 17.8449 8.57485 17.9071C8.70793 17.9694 8.85309 18.0015 9 18.0013C9.23365 18.0017 9.46009 17.9203 9.64 17.7713C9.74126 17.6873 9.82496 17.5842 9.88631 17.4679C9.94766 17.3515 9.98546 17.2242 9.99754 17.0932C10.0096 16.9622 9.99573 16.8302 9.95669 16.7046C9.91764 16.579 9.8542 16.4623 9.77 16.3613L6.14 12.0013H18C18.2652 12.0013 18.5196 11.8959 18.7071 11.7084C18.8946 11.5208 19 11.2665 19 11.0013C19 10.736 18.8946 10.4817 18.7071 10.2941C18.5196 10.1066 18.2652 10.0013 18 10.0013Z" fill="#204430"/>
</svg>
